<?xml version="1.0" standalone="no"?>
<!DOCTYPE svg PUBLIC "-//W3C//DTD SVG 20010904//EN"
 "http://www.w3.org/TR/2001/REC-SVG-20010904/DTD/svg10.dtd">
<svg version="1.0" xmlns="http://www.w3.org/2000/svg"
 width="1444.000000pt" height="591.000000pt" viewBox="0 0 1444.000000 591.000000"
 preserveAspectRatio="xMidYMid meet">

<g transform="translate(0.000000,591.000000) scale(0.100000,-0.100000)"
fill="#DAA520" stroke="none">
<path d="M4633 5851 c-58 -20 -88 -41 -225 -158 l-97 -83 -425 0 -425 0 -63
29 c-436 201 -955 259 -1438 161 -248 -50 -470 -135 -720 -277 -144 -82 -359
-253 -492 -392 -231 -241 -391 -501 -528 -856 -20 -52 -62 -212 -85 -327 -47
-236 -45 -678 5 -914 115 -541 406 -1015 835 -1358 330 -264 695 -423 1130
-492 152 -24 519 -24 660 0 249 42 456 102 638 185 l46 21 4418 0 c4834 0
4545 -3 4818 57 79 17 254 68 300 88 89 37 118 51 200 92 457 228 827 643
1012 1133 37 98 49 135 76 250 42 173 52 271 52 490 0 120 -6 243 -13 295 -78
526 -339 990 -746 1330 -129 107 -347 240 -508 309 -21 9 -53 22 -70 30 -48
20 -222 72 -303 89 -272 60 -56 57 -4061 57 l-3661 0 -17 60 c-23 85 -97 161
-178 184 -69 20 -71 20 -135 -3z m-413 -315 c0 -2 -30 -33 -67 -68 -97 -90
-398 -391 -468 -468 -116 -127 -151 -166 -205 -230 -30 -36 -63 -74 -73 -85
-40 -43 -259 -317 -348 -435 -114 -151 -262 -359 -351 -495 -100 -153 -178
-275 -178 -280 0 -13 -65 -105 -74 -105 -6 0 -17 9 -23 19 -7 11 -152 200
-323 420 -351 452 -352 453 -472 459 -58 4 -76 0 -122 -22 -86 -42 -135 -121
-136 -221 0 -80 16 -117 93 -218 39 -51 83 -109 97 -127 14 -18 104 -136 200
-261 96 -125 254 -329 350 -454 96 -125 185 -237 198 -250 56 -56 181 -89 245
-65 85 34 118 70 204 230 16 30 42 74 56 97 15 24 27 45 27 48 0 8 205 333
293 465 102 154 197 286 321 450 97 128 131 172 197 255 266 331 710 797 994
1044 72 62 158 138 193 168 34 30 71 72 82 94 l21 39 3782 -3 c3052 -2 3792
-5 3832 -16 28 -7 95 -24 150 -38 234 -57 427 -142 635 -277 391 -255 698
-665 830 -1106 12 -41 26 -86 30 -100 9 -26 31 -153 50 -277 13 -93 13 -353 0
-446 -19 -124 -41 -251 -50 -277 -4 -14 -18 -59 -30 -100 -51 -172 -117 -315
-222 -483 -38 -59 -72 -113 -78 -120 -180 -228 -328 -368 -526 -500 -234 -155
-465 -249 -779 -315 -74 -15 -402 -17 -4527 -19 -2447 -2 -4448 1 -4448 5 0 5
12 14 28 21 44 20 190 120 277 189 114 92 307 290 396 408 241 319 379 641
451 1046 18 103 22 163 22 363 1 322 -25 489 -121 775 -42 126 -177 420 -192
420 -7 0 -124 -119 -221 -225 -30 -34 -74 -82 -97 -107 -24 -26 -43 -51 -43
-56 0 -5 13 -38 29 -73 139 -311 182 -692 120 -1059 -48 -282 -196 -599 -389
-835 -70 -85 -212 -223 -300 -291 -58 -46 -253 -174 -264 -174 -2 0 -46 -20
-97 -44 -393 -182 -826 -215 -1269 -96 -47 12 -89 27 -94 31 -6 5 -17 9 -26 9
-25 0 -245 105 -326 155 -389 243 -666 593 -801 1015 -60 187 -83 342 -83 565
0 266 36 454 133 689 93 231 207 404 387 590 289 299 655 484 1080 546 96 14
385 14 475 0 248 -38 500 -125 681 -235 l42 -25 78 82 c44 46 124 129 178 185
55 57 98 104 95 106 -17 15 -121 77 -129 77 -6 0 -10 5 -10 10 0 6 108 10 305
10 168 0 305 -2 305 -4z"/>
<path d="M8480 4995 c0 -3 0 -323 0 -712 l0 -708 142 0 143 0 3 48 c2 26 5 47
8 47 3 0 17 -11 32 -25 36 -34 113 -69 186 -84 105 -23 261 23 354 105 47 41
109 130 124 177 40 131 46 202 24 302 -41 192 -178 327 -369 365 -56 11 -78
11 -134 0 -77 -14 -155 -50 -195 -88 l-28 -26 0 302 0 302 -145 0 c-80 0 -145
-2 -145 -5z m594 -760 c57 -24 113 -80 130 -132 21 -62 20 -83 -8 -146 -44
-101 -137 -150 -243 -128 -107 21 -177 103 -177 206 1 87 35 140 124 194 42
25 121 28 174 6z"/>
<path d="M10595 4966 c-79 -30 -130 -123 -106 -194 31 -87 134 -146 214 -122
58 17 84 37 112 85 43 72 25 150 -46 207 -44 35 -115 45 -174 24z"/>
<path d="M5686 4903 c4 -16 10 -32 14 -38 4 -5 15 -37 24 -70 10 -33 24 -76
31 -96 13 -34 100 -292 299 -884 l81 -240 120 0 120 0 33 130 c18 72 49 191
68 265 20 74 43 165 51 203 9 37 21 67 28 67 6 0 23 -46 38 -102 14 -57 37
-146 51 -198 13 -52 39 -149 56 -215 17 -66 33 -128 36 -137 5 -16 20 -18 123
-18 l118 0 51 153 c28 83 94 278 147 432 53 154 120 354 151 445 30 91 59 174
64 185 5 11 18 48 29 83 l20 62 -166 -2 -166 -3 -22 -70 c-12 -38 -32 -104
-45 -145 -12 -41 -33 -109 -46 -150 -13 -41 -31 -100 -40 -130 -9 -30 -25 -80
-34 -110 -41 -126 -50 -160 -50 -174 0 -9 -4 -16 -9 -16 -18 0 -14 -11 -98
305 -19 72 -44 168 -56 215 l-23 85 -118 3 c-127 3 -141 -1 -149 -46 -4 -23
-41 -165 -67 -257 -15 -53 -61 -229 -69 -259 -7 -32 -28 -46 -35 -24 -2 7 -16
54 -31 103 -15 50 -35 115 -45 145 -10 30 -30 96 -45 145 -15 50 -33 108 -40
130 -8 22 -28 88 -46 148 l-33 107 -163 0 -163 0 6 -27z"/>
<path d="M11105 4820 c-3 -5 -5 -78 -4 -162 l1 -153 -82 -5 -81 -5 -1 -105 -1
-105 81 -3 82 -3 2 -352 3 -352 143 0 143 0 2 350 2 350 95 5 95 5 3 107 3
107 -98 3 -98 3 -2 160 -2 160 -139 3 c-87 1 -143 -1 -147 -8z"/>
<path d="M7750 4509 c-130 -33 -186 -63 -260 -138 -97 -96 -140 -203 -140
-339 0 -189 95 -341 263 -421 189 -90 436 -63 594 65 l42 35 -70 89 c-39 50
-74 90 -78 90 -3 0 -22 -10 -41 -23 -60 -40 -116 -57 -191 -57 -75 0 -129 17
-167 53 -22 20 -52 68 -52 82 0 3 153 5 340 5 l340 0 0 83 c-1 150 -38 246
-135 343 -110 111 -305 169 -445 133z m156 -243 c28 -7 62 -21 77 -30 27 -18
70 -93 61 -108 -8 -12 -394 -10 -394 2 0 46 72 117 136 135 63 17 60 17 120 1z"/>
<path d="M9872 4505 c-124 -31 -234 -116 -260 -203 -38 -127 30 -261 165 -323
40 -19 162 -54 263 -76 81 -18 80 -86 -3 -121 -65 -28 -145 1 -177 63 l-15 30
-132 -3 c-73 -1 -133 -6 -133 -10 0 -16 22 -89 37 -120 56 -123 266 -210 439
-182 121 20 195 53 257 114 77 78 97 181 53 278 -46 103 -127 150 -354 203
-116 28 -155 78 -96 124 53 42 142 20 163 -40 l10 -29 130 0 c71 0 132 4 136
9 9 15 -16 102 -41 142 -47 76 -111 114 -249 149 -52 13 -127 11 -193 -5z"/>
<path d="M11981 4505 c-180 -44 -319 -178 -362 -348 -7 -29 -10 -90 -7 -155 4
-95 8 -114 37 -173 41 -85 91 -143 163 -190 156 -100 367 -109 551 -23 56 27
137 85 134 97 -5 16 -132 176 -140 177 -5 0 -23 -11 -40 -23 -81 -60 -230 -77
-314 -36 -46 22 -93 74 -93 102 0 16 30 17 334 17 l335 0 7 48 c10 66 -12 184
-48 260 -89 189 -339 300 -557 247z m229 -258 c46 -23 90 -76 90 -108 0 -18
-12 -19 -201 -19 l-200 0 7 23 c17 56 66 100 139 124 50 16 106 9 165 -20z"/>
<path d="M10520 4045 c0 -250 0 -458 0 -462 0 -5 64 -8 143 -8 l142 0 3 463 2
462 -145 0 -145 0 0 -455z"/>
<path d="M6130 3227 c-136 -38 -196 -94 -239 -226 -15 -45 -14 -68 5 -130 19
-65 69 -121 137 -154 66 -32 75 -35 172 -58 155 -37 215 -86 215 -176 0 -64
-29 -108 -90 -139 -114 -59 -274 2 -305 114 l-11 37 -64 0 -65 0 -3 -31 c-8
-80 92 -205 194 -244 160 -61 339 -21 432 97 31 40 62 130 62 180 0 48 -29
118 -65 161 -36 41 -131 94 -201 111 -218 53 -274 90 -274 182 0 40 5 54 33
85 48 56 98 74 176 64 52 -7 69 -14 97 -41 19 -18 39 -50 44 -70 6 -20 17 -40
26 -43 22 -9 122 -7 127 2 7 10 -15 90 -37 135 -54 111 -231 180 -366 144z"/>
<path d="M8010 3225 c-112 -26 -198 -74 -271 -152 -99 -104 -168 -308 -140
-416 6 -25 11 -56 11 -69 0 -12 19 -60 41 -106 141 -283 472 -376 734 -206 28
18 63 46 78 62 l29 30 -52 41 -52 41 -41 -34 c-95 -76 -199 -107 -299 -86
-158 32 -271 148 -299 304 -20 116 -1 211 62 305 46 69 105 114 187 143 114
40 263 9 347 -73 37 -35 42 -36 78 -5 16 13 38 31 50 39 20 13 20 14 -29 61
-60 58 -167 110 -255 125 -80 13 -108 13 -179 -4z"/>
<path d="M6820 3218 c0 -2 0 -230 0 -508 l-1 -505 307 0 306 0 0 65 0 65 -233
5 -234 5 0 145 0 145 198 3 197 2 0 65 0 65 -197 2 -198 3 0 155 0 155 228 3
227 2 0 65 0 65 -300 0 c-165 0 -300 -1 -300 -2z"/>
<path d="M8712 2833 l3 -388 28 -55 c15 -30 37 -66 50 -81 88 -99 247 -141
389 -104 110 28 181 84 231 180 l31 60 4 388 3 388 -71 -3 -71 -3 1 -349 c1
-403 -2 -420 -74 -483 -41 -37 -109 -63 -159 -63 -48 0 -127 31 -158 63 -68
67 -69 72 -69 475 l0 362 -71 0 -70 0 3 -387z"/>
<path d="M9760 3218 c0 -2 0 -230 0 -508 l-1 -505 47 -3 c26 -2 58 -1 71 3
l23 5 0 184 c0 205 -4 196 74 196 49 0 35 16 195 -223 l112 -168 80 2 c43 1
79 5 79 9 0 5 -56 89 -125 187 -68 98 -125 181 -125 185 0 4 16 10 35 14 77
14 157 89 196 184 19 47 19 204 0 250 -25 60 -61 107 -103 135 -72 48 -115 55
-345 55 -117 0 -213 -1 -213 -2z m452 -150 c56 -32 82 -85 82 -169 0 -102 -45
-162 -135 -180 -51 -10 -220 -12 -243 -3 -14 5 -16 31 -16 183 0 98 3 181 7
184 3 4 65 7 136 7 115 0 134 -2 169 -22z"/>
<path d="M10710 2710 l0 -510 308 2 307 3 0 65 0 65 -235 5 -235 5 0 145 0
145 198 3 197 2 0 65 0 65 -197 2 -198 3 0 155 0 155 228 3 227 2 0 65 0 65
-300 0 -300 0 0 -510z"/>
<path d="M11592 2713 l3 -508 180 -3 c292 -6 397 20 506 125 56 53 105 136
124 208 5 17 10 37 12 45 15 51 14 193 -1 261 -16 72 -22 88 -55 158 -43 89
-148 172 -259 203 -56 15 -104 18 -289 18 l-223 0 2 -507z m490 357 c73 -27
140 -97 174 -180 22 -55 26 -82 27 -170 2 -188 -60 -305 -192 -362 -38 -16
-65 -18 -200 -16 l-156 3 -3 360 c-1 198 0 366 3 372 3 10 42 13 149 13 120 0
154 -3 198 -20z"/>
<path d="M5400 741 c0 -124 -8 -160 -28 -126 -11 20 -77 44 -122 44 -85 1
-170 -72 -191 -164 -34 -152 101 -294 239 -252 23 7 51 21 62 30 27 22 40 22
40 -3 0 -17 7 -20 40 -20 l40 0 0 310 0 310 -40 0 -40 0 0 -129z m-86 -165
c51 -21 86 -74 85 -127 -1 -59 -26 -99 -81 -127 -40 -21 -51 -22 -80 -13 -114
39 -144 168 -56 247 40 37 78 43 132 20z"/>
<path d="M5780 560 l0 -310 40 0 c33 0 40 3 40 20 0 23 13 26 29 6 7 -8 33
-21 58 -30 135 -46 271 100 234 251 -33 130 -144 194 -254 145 -26 -12 -47
-26 -47 -31 0 -6 -4 -11 -10 -11 -6 0 -10 52 -10 135 l0 135 -40 0 -40 0 0
-310z m255 16 c60 -25 95 -131 63 -189 -24 -41 -51 -66 -85 -78 -27 -9 -40 -7
-70 8 -106 51 -113 206 -12 256 42 20 60 21 104 3z"/>
<path d="M6955 832 c-91 -44 -130 -139 -89 -220 24 -50 79 -79 199 -107 17 -3
45 -18 63 -31 81 -62 6 -180 -103 -160 -40 8 -83 40 -95 72 -8 19 -17 24 -45
24 -32 0 -35 -2 -35 -30 0 -47 79 -121 148 -139 56 -14 82 -11 148 20 58 26
87 69 92 137 9 106 -52 161 -220 196 -45 10 -88 53 -88 90 0 102 175 123 209
25 8 -25 15 -29 46 -29 21 0 38 6 41 14 8 22 -28 87 -67 118 -48 39 -145 48
-204 20z"/>
<path d="M7415 826 c-67 -35 -88 -67 -93 -138 -4 -51 -1 -62 23 -94 31 -40 58
-54 164 -84 85 -25 121 -56 121 -105 0 -97 -174 -128 -220 -39 -19 37 -29 44
-62 44 -38 0 -42 -13 -19 -64 34 -77 152 -131 233 -107 93 28 148 92 148 172
0 81 -48 131 -158 164 -124 37 -152 57 -152 109 0 59 64 102 132 89 34 -6 78
-49 78 -75 0 -16 6 -19 43 -16 38 3 42 5 39 28 -5 35 -38 86 -72 110 -19 13
-52 23 -92 26 -55 5 -70 2 -113 -20z"/>
<path d="M11177 832 c-20 -22 -21 -41 -3 -64 20 -27 62 -23 82 7 15 23 15 27
0 50 -20 30 -56 33 -79 7z"/>
<path d="M7827 834 c-4 -4 -7 -137 -7 -296 l0 -288 161 0 160 0 -3 37 -3 38
-117 3 -118 3 -2 252 -3 252 -30 3 c-17 2 -34 0 -38 -4z"/>
<path d="M8397 833 c-4 -3 -7 -136 -7 -295 l0 -288 181 0 180 0 -3 38 -3 37
-135 5 -135 5 0 80 0 80 113 3 113 3 -3 37 -3 37 -113 3 -113 3 3 87 3 87 125
3 c84 2 127 7 132 15 13 21 9 55 -8 61 -21 8 -319 8 -327 -1z"/>
<path d="M10954 785 c-2 -5 -5 -39 -6 -75 -3 -65 -3 -65 -33 -65 -26 -1 -30
-5 -33 -32 -3 -29 -1 -32 30 -35 l33 -3 3 -162 2 -163 40 0 40 0 2 163 3 162
43 3 c42 3 43 4 40 35 -3 30 -5 32 -43 32 l-40 0 -5 74 -5 74 -34 1 c-18 1
-35 -3 -37 -9z"/>
<path d="M2400 644 c-19 -9 -39 -22 -43 -30 -10 -18 -27 -9 -27 15 0 14 -7 17
-37 16 l-38 -3 -3 -296 -2 -296 40 0 40 0 0 120 c0 66 3 120 6 120 3 0 19 -9
35 -21 49 -34 88 -41 145 -24 133 39 184 209 100 335 -43 65 -146 95 -216 64z
m132 -81 c73 -66 60 -191 -24 -243 -38 -23 -76 -19 -121 12 -113 80 -46 272
88 253 22 -3 48 -13 57 -22z"/>
<path d="M2856 646 c-167 -62 -183 -314 -23 -385 68 -30 94 -33 155 -15 76 22
125 71 147 146 18 63 10 109 -28 176 -41 70 -166 109 -251 78z m154 -86 c38
-27 50 -56 50 -117 0 -56 -24 -98 -70 -120 -95 -45 -190 17 -190 126 0 115
118 177 210 111z"/>
<path d="M3965 649 c-91 -34 -131 -97 -129 -205 1 -57 6 -78 27 -111 31 -50
56 -68 120 -89 41 -14 56 -14 95 -4 51 14 106 50 122 79 8 15 5 22 -16 36 -24
16 -26 15 -59 -14 -47 -41 -92 -48 -142 -22 -34 17 -73 68 -73 95 0 3 72 6
159 6 101 0 162 4 166 10 10 16 -15 110 -38 146 -32 48 -82 76 -146 80 -31 2
-69 -1 -86 -7z m156 -95 c16 -15 29 -36 29 -46 0 -16 -11 -18 -120 -18 -66 0
-120 2 -120 5 0 4 7 20 16 36 33 64 139 76 195 23z"/>
<path d="M4473 648 c-13 -6 -28 -24 -35 -39 -17 -38 -26 -37 -30 4 -3 30 -5
32 -41 32 l-39 0 1 -195 0 -195 41 -3 40 -3 0 104 c0 131 5 157 40 199 25 30
32 33 78 31 48 -2 50 -1 54 28 3 22 0 33 -13 40 -23 12 -68 11 -96 -3z"/>
<path d="M4725 647 c-56 -23 -75 -38 -102 -80 -23 -35 -27 -53 -27 -112 0
-114 43 -177 145 -210 44 -15 57 -15 97 -4 48 13 97 41 119 69 17 21 16 26
-13 44 -24 17 -26 16 -59 -12 -44 -40 -82 -47 -133 -27 -41 17 -63 40 -76 83
l-7 22 161 0 c182 0 180 -1 161 78 -25 97 -87 152 -180 158 -31 2 -69 -2 -86
-9z m156 -93 c16 -15 29 -36 29 -46 0 -16 -11 -18 -120 -18 -66 0 -120 3 -120
6 0 20 45 74 68 83 46 18 110 7 143 -25z"/>
<path d="M8974 645 c-17 -8 -36 -21 -43 -29 -16 -19 -31 -12 -31 13 0 14 -7
17 -37 16 l-38 -3 -3 -196 -2 -197 41 3 42 3 -2 117 c-3 162 24 208 120 210
37 0 47 -4 72 -33 28 -34 28 -35 26 -164 l-1 -130 41 -3 41 -3 0 123 c0 135
-10 187 -45 234 -37 48 -118 66 -181 39z"/>
<path d="M9408 650 c-73 -22 -122 -75 -147 -158 -10 -36 -10 -52 4 -100 33
-110 143 -176 253 -150 28 6 62 21 77 32 l27 21 -21 26 -20 26 -51 -25 c-47
-23 -54 -24 -91 -12 -22 8 -53 29 -70 47 -24 28 -29 43 -29 83 0 65 12 93 52
121 42 31 126 33 158 4 20 -18 21 -18 46 6 l25 24 -25 22 c-44 38 -125 52
-188 33z"/>
<path d="M9853 648 c-13 -6 -28 -24 -35 -39 -13 -30 -27 -38 -29 -16 -1 6 -2
21 -3 32 -1 16 -8 20 -41 20 l-40 0 0 -195 0 -195 40 0 40 0 5 125 c3 69 10
134 17 145 25 44 52 59 104 57 46 -2 49 -1 49 23 0 14 3 25 8 25 8 -1 152
-348 152 -370 0 -18 -50 -152 -61 -164 -5 -6 -9 -18 -9 -29 0 -15 6 -18 37
-15 l37 3 62 145 c35 80 63 152 63 161 1 8 5 19 10 25 4 5 26 52 47 104 21 52
44 106 51 120 17 33 2 39 -69 31 -3 -1 -12 -18 -19 -38 -6 -21 -20 -56 -30
-78 -10 -22 -27 -62 -37 -90 -20 -50 -52 -74 -52 -38 0 11 -4 23 -8 29 -5 5
-21 41 -36 79 -50 127 -59 140 -91 141 -17 1 -55 4 -85 7 -34 4 -64 2 -77 -5z"/>
<path d="M10580 644 c-19 -9 -39 -22 -43 -30 -10 -18 -27 -9 -27 15 0 14 -7
17 -37 16 l-38 -3 -3 -296 -2 -296 40 0 40 0 0 120 c0 66 3 120 6 120 3 0 19
-9 35 -21 49 -34 88 -41 145 -24 133 39 184 209 100 335 -43 65 -146 95 -216
64z m132 -81 c73 -66 60 -191 -24 -243 -38 -23 -76 -19 -121 12 -113 80 -46
272 88 253 22 -3 48 -13 57 -22z"/>
<path d="M11463 644 c-150 -55 -176 -298 -40 -371 106 -57 192 -48 268 27 78
77 86 191 22 278 -50 67 -165 97 -250 66z m165 -87 c76 -70 57 -198 -36 -238
-48 -21 -81 -17 -125 13 -83 58 -73 196 18 243 40 21 111 12 143 -18z"/>
<path d="M11984 645 c-17 -8 -36 -21 -43 -29 -19 -23 -31 -20 -31 7 0 21 -4
24 -37 22 l-38 -3 -3 -196 -2 -196 40 0 40 0 0 127 c0 119 1 128 25 159 45 59
129 64 168 12 17 -23 20 -44 21 -160 l1 -133 43 -3 44 -3 -4 143 c-4 172 -17
209 -88 246 -49 25 -90 27 -136 7z"/>
<path d="M3167 643 c-4 -3 28 -92 68 -188 7 -16 22 -57 35 -90 45 -120 42
-116 74 -113 33 3 34 6 69 103 54 152 60 165 71 165 6 0 20 -28 30 -63 10 -34
22 -66 25 -72 3 -5 15 -37 26 -70 20 -57 23 -60 54 -60 32 0 34 2 67 84 19 47
34 89 34 94 0 5 6 23 14 40 31 71 64 167 58 170 -6 3 -42 2 -73 -2 -4 -1 -17
-34 -29 -73 -13 -40 -26 -77 -30 -83 -3 -5 -12 -29 -20 -53 -7 -23 -18 -41
-24 -39 -5 2 -17 23 -26 48 -9 24 -19 51 -23 59 -3 8 -14 39 -23 68 -20 64
-33 78 -70 77 -27 0 -31 -5 -71 -115 -23 -63 -44 -124 -47 -135 l-6 -20 -13
20 c-7 11 -19 40 -27 65 -7 25 -16 50 -19 55 -3 6 -15 37 -26 69 -20 58 -22
60 -57 62 -21 1 -39 0 -41 -3z"/>
<path d="M6228 639 c-9 -6 10 -60 63 -176 10 -23 19 -44 19 -48 0 -6 36 -90
51 -117 11 -22 12 -61 0 -74 -12 -13 -61 -141 -61 -159 0 -10 11 -15 34 -15
29 0 37 5 50 32 9 17 16 35 16 40 0 5 9 28 19 51 10 23 31 71 46 107 15 36 36
84 46 107 10 23 19 44 19 48 0 6 27 69 65 152 14 29 21 54 17 56 -6 3 -44 2
-73 -2 -3 -1 -30 -59 -59 -131 -30 -74 -59 -130 -67 -130 -7 0 -13 4 -13 10 0
5 -13 38 -29 72 -15 35 -32 74 -36 88 -4 14 -16 41 -26 61 -15 29 -24 37 -45
35 -14 0 -30 -4 -36 -7z"/>
<path d="M11174 636 c-3 -7 -3 -95 -2 -196 l3 -185 40 0 40 0 0 195 0 194 -38
2 c-22 0 -41 -4 -43 -10z"/>
</g>
</svg>
